<svg id="city-data-chart" viewBox="0 0 600 600" class="w-full h-full" xmlns="http://www.w3.org/2000/svg"><defs><linearGradient id="skyGrad" x1="0%" y1="0%" x2="0%" y2="100%"><stop offset="0%" stop-color="#1e293b"/><stop offset="100%" stop-color="#334155"/></linearGradient></defs><rect width="600" height="600" fill="url(#skyGrad)"/><line x1="0" y1="580" x2="600" y2="580" stroke="#64748B" stroke-width="3" stroke-dasharray="8,8" opacity="0.3"/><line x1="0" y1="440" x2="600" y2="440" stroke="#64748B" stroke-width="3" stroke-dasharray="8,8" opacity="0.3"/><line x1="0" y1="300" x2="600" y2="300" stroke="#64748B" stroke-width="3" stroke-dasharray="8,8" opacity="0.3"/><line x1="0" y1="160" x2="600" y2="160" stroke="#64748B" stroke-width="3" stroke-dasharray="8,8" opacity="0.3"/><line x1="0" y1="20" x2="600" y2="20" stroke="#64748B" stroke-width="3" stroke-dasharray="8,8" opacity="0.3"/><g><rect x="50" y="300" width="120" height="280" fill="#0066FF" stroke="#0066FF" stroke-width="3" opacity="0.9"/><g><rect x="54" y="304" width="8" height="12" fill="#00CC88" opacity="0.6"/><rect x="66" y="304" width="8" height="12" fill="#00CC88" opacity="0.6"/><rect x="78" y="304" width="8" height="12" fill="#00CC88" opacity="0.6"/><rect x="90" y="304" width="8" height="12" fill="#00CC88" opacity="0.6"/><rect x="102" y="304" width="8" height="12" fill="#00CC88" opacity="0.6"/><rect x="114" y="304" width="8" height="12" fill="#00CC88" opacity="0.6"/><rect x="126" y="304" width="8" height="12" fill="#00CC88" opacity="0.6"/><rect x="138" y="304" width="8" height="12" fill="#00CC88" opacity="0.6"/><rect x="150" y="304" width="8" height="12" fill="#00CC88" opacity="0.6"/><rect x="162" y="304" width="8" height="12" fill="#00CC88" opacity="0.6"/></g><g><rect x="54" y="329" width="8" height="12" fill="#00CC88" opacity="0.6"/><rect x="66" y="329" width="8" height="12" fill="#00CC88" opacity="0.6"/><rect x="78" y="329" width="8" height="12" fill="#00CC88" opacity="0.6"/><rect x="90" y="329" width="8" height="12" fill="#00CC88" opacity="0.6"/><rect x="102" y="329" width="8" height="12" fill="#00CC88" opacity="0.6"/><rect x="114" y="329" width="8" height="12" fill="#00CC88" opacity="0.6"/><rect x="126" y="329" width="8" height="12" fill="#00CC88" opacity="0.6"/><rect x="138" y="329" width="8" height="12" fill="#00CC88" opacity="0.6"/><rect x="150" y="329" width="8" height="12" fill="#00CC88" opacity="0.6"/><rect x="162" y="329" width="8" height="12" fill="#00CC88" opacity="0.6"/></g><g><rect x="54" y="354" width="8" height="12" fill="#00CC88" opacity="0.6"/><rect x="66" y="354" width="8" height="12" fill="#00CC88" opacity="0.6"/><rect x="78" y="354" width="8" height="12" fill="#00CC88" opacity="0.6"/><rect x="90" y="354" width="8" height="12" fill="#00CC88" opacity="0.6"/><rect x="102" y="354" width="8" height="12" fill="#00CC88" opacity="0.6"/><rect x="114" y="354" width="8" height="12" fill="#00CC88" opacity="0.6"/><rect x="126" y="354" width="8" height="12" fill="#00CC88" opacity="0.6"/><rect x="138" y="354" width="8" height="12" fill="#00CC88" opacity="0.6"/><rect x="150" y="354" width="8" height="12" fill="#00CC88" opacity="0.6"/><rect x="162" y="354" width="8" height="12" fill="#00CC88" opacity="0.6"/></g><g><rect x="54" y="379" width="8" height="12" fill="#00CC88" opacity="0.6"/><rect x="66" y="379" width="8" height="12" fill="#00CC88" opacity="0.6"/><rect x="78" y="379" width="8" height="12" fill="#00CC88" opacity="0.6"/><rect x="90" y="379" width="8" height="12" fill="#00CC88" opacity="0.6"/><rect x="102" y="379" width="8" height="12" fill="#00CC88" opacity="0.6"/><rect x="114" y="379" width="8" height="12" fill="#00CC88" opacity="0.6"/><rect x="126" y="379" width="8" height="12" fill="#00CC88" opacity="0.6"/><rect x="138" y="379" width="8" height="12" fill="#00CC88" opacity="0.6"/><rect x="150" y="379" width="8" height="12" fill="#00CC88" opacity="0.6"/><rect x="162" y="379" width="8" height="12" fill="#00CC88" opacity="0.6"/></g><g><rect x="54" y="404" width="8" height="12" fill="#00CC88" opacity="0.6"/><rect x="66" y="404" width="8" height="12" fill="#00CC88" opacity="0.6"/><rect x="78" y="404" width="8" height="12" fill="#00CC88" opacity="0.6"/><rect x="90" y="404" width="8" height="12" fill="#00CC88" opacity="0.6"/><rect x="102" y="404" width="8" height="12" fill="#00CC88" opacity="0.6"/><rect x="114" y="404" width="8" height="12" fill="#00CC88" opacity="0.6"/><rect x="126" y="404" width="8" height="12" fill="#00CC88" opacity="0.6"/><rect x="138" y="404" width="8" height="12" fill="#00CC88" opacity="0.6"/><rect x="150" y="404" width="8" height="12" fill="#00CC88" opacity="0.6"/><rect x="162" y="404" width="8" height="12" fill="#00CC88" opacity="0.6"/></g><g><rect x="54" y="429" width="8" height="12" fill="#00CC88" opacity="0.6"/><rect x="66" y="429" width="8" height="12" fill="#00CC88" opacity="0.6"/><rect x="78" y="429" width="8" height="12" fill="#00CC88" opacity="0.6"/><rect x="90" y="429" width="8" height="12" fill="#00CC88" opacity="0.6"/><rect x="102" y="429" width="8" height="12" fill="#00CC88" opacity="0.6"/><rect x="114" y="429" width="8" height="12" fill="#00CC88" opacity="0.6"/><rect x="126" y="429" width="8" height="12" fill="#00CC88" opacity="0.6"/><rect x="138" y="429" width="8" height="12" fill="#00CC88" opacity="0.6"/><rect x="150" y="429" width="8" height="12" fill="#00CC88" opacity="0.6"/><rect x="162" y="429" width="8" height="12" fill="#00CC88" opacity="0.6"/></g><g><rect x="54" y="454" width="8" height="12" fill="#00CC88" opacity="0.6"/><rect x="66" y="454" width="8" height="12" fill="#00CC88" opacity="0.6"/><rect x="78" y="454" width="8" height="12" fill="#00CC88" opacity="0.6"/><rect x="90" y="454" width="8" height="12" fill="#00CC88" opacity="0.6"/><rect x="102" y="454" width="8" height="12" fill="#00CC88" opacity="0.6"/><rect x="114" y="454" width="8" height="12" fill="#00CC88" opacity="0.6"/><rect x="126" y="454" width="8" height="12" fill="#00CC88" opacity="0.6"/><rect x="138" y="454" width="8" height="12" fill="#00CC88" opacity="0.6"/><rect x="150" y="454" width="8" height="12" fill="#00CC88" opacity="0.6"/><rect x="162" y="454" width="8" height="12" fill="#00CC88" opacity="0.6"/></g><g><rect x="54" y="479" width="8" height="12" fill="#00CC88" opacity="0.6"/><rect x="66" y="479" width="8" height="12" fill="#00CC88" opacity="0.6"/><rect x="78" y="479" width="8" height="12" fill="#00CC88" opacity="0.6"/><rect x="90" y="479" width="8" height="12" fill="#00CC88" opacity="0.6"/><rect x="102" y="479" width="8" height="12" fill="#00CC88" opacity="0.6"/><rect x="114" y="479" width="8" height="12" fill="#00CC88" opacity="0.6"/><rect x="126" y="479" width="8" height="12" fill="#00CC88" opacity="0.6"/><rect x="138" y="479" width="8" height="12" fill="#00CC88" opacity="0.6"/><rect x="150" y="479" width="8" height="12" fill="#00CC88" opacity="0.6"/><rect x="162" y="479" width="8" height="12" fill="#00CC88" opacity="0.6"/></g><g><rect x="54" y="504" width="8" height="12" fill="#00CC88" opacity="0.6"/><rect x="66" y="504" width="8" height="12" fill="#00CC88" opacity="0.6"/><rect x="78" y="504" width="8" height="12" fill="#00CC88" opacity="0.6"/><rect x="90" y="504" width="8" height="12" fill="#00CC88" opacity="0.6"/><rect x="102" y="504" width="8" height="12" fill="#00CC88" opacity="0.6"/><rect x="114" y="504" width="8" height="12" fill="#00CC88" opacity="0.6"/><rect x="126" y="504" width="8" height="12" fill="#00CC88" opacity="0.6"/><rect x="138" y="504" width="8" height="12" fill="#00CC88" opacity="0.6"/><rect x="150" y="504" width="8" height="12" fill="#00CC88" opacity="0.6"/><rect x="162" y="504" width="8" height="12" fill="#00CC88" opacity="0.6"/></g><g><rect x="54" y="529" width="8" height="12" fill="#00CC88" opacity="0.6"/><rect x="66" y="529" width="8" height="12" fill="#00CC88" opacity="0.6"/><rect x="78" y="529" width="8" height="12" fill="#00CC88" opacity="0.6"/><rect x="90" y="529" width="8" height="12" fill="#00CC88" opacity="0.6"/><rect x="102" y="529" width="8" height="12" fill="#00CC88" opacity="0.6"/><rect x="114" y="529" width="8" height="12" fill="#00CC88" opacity="0.6"/><rect x="126" y="529" width="8" height="12" fill="#00CC88" opacity="0.6"/><rect x="138" y="529" width="8" height="12" fill="#00CC88" opacity="0.6"/><rect x="150" y="529" width="8" height="12" fill="#00CC88" opacity="0.6"/><rect x="162" y="529" width="8" height="12" fill="#00CC88" opacity="0.6"/></g><g><rect x="54" y="554" width="8" height="12" fill="#00CC88" opacity="0.6"/><rect x="66" y="554" width="8" height="12" fill="#00CC88" opacity="0.6"/><rect x="78" y="554" width="8" height="12" fill="#00CC88" opacity="0.6"/><rect x="90" y="554" width="8" height="12" fill="#00CC88" opacity="0.6"/><rect x="102" y="554" width="8" height="12" fill="#00CC88" opacity="0.6"/><rect x="114" y="554" width="8" height="12" fill="#00CC88" opacity="0.6"/><rect x="126" y="554" width="8" height="12" fill="#00CC88" opacity="0.6"/><rect x="138" y="554" width="8" height="12" fill="#00CC88" opacity="0.6"/><rect x="150" y="554" width="8" height="12" fill="#00CC88" opacity="0.6"/><rect x="162" y="554" width="8" height="12" fill="#00CC88" opacity="0.6"/></g><rect x="50" y="295" width="120" height="5" fill="#8B5CF6"/><circle cx="110" cy="300" r="5" fill="#00CC88" stroke="#fff" stroke-width="2"/></g><g><rect x="220" y="200" width="130" height="380" fill="#0066FF" stroke="#0066FF" stroke-width="3" opacity="0.9"/><g><rect x="224" y="204" width="8" height="12" fill="#00CC88" opacity="0.6"/><rect x="236" y="204" width="8" height="12" fill="#00CC88" opacity="0.6"/><rect x="248" y="204" width="8" height="12" fill="#00CC88" opacity="0.6"/><rect x="260" y="204" width="8" height="12" fill="#00CC88" opacity="0.6"/><rect x="272" y="204" width="8" height="12" fill="#00CC88" opacity="0.6"/><rect x="284" y="204" width="8" height="12" fill="#00CC88" opacity="0.6"/><rect x="296" y="204" width="8" height="12" fill="#00CC88" opacity="0.6"/><rect x="308" y="204" width="8" height="12" fill="#00CC88" opacity="0.6"/><rect x="320" y="204" width="8" height="12" fill="#00CC88" opacity="0.6"/><rect x="332" y="204" width="8" height="12" fill="#00CC88" opacity="0.6"/></g><g><rect x="224" y="229" width="8" height="12" fill="#00CC88" opacity="0.6"/><rect x="236" y="229" width="8" height="12" fill="#00CC88" opacity="0.6"/><rect x="248" y="229" width="8" height="12" fill="#00CC88" opacity="0.6"/><rect x="260" y="229" width="8" height="12" fill="#00CC88" opacity="0.6"/><rect x="272" y="229" width="8" height="12" fill="#00CC88" opacity="0.6"/><rect x="284" y="229" width="8" height="12" fill="#00CC88" opacity="0.6"/><rect x="296" y="229" width="8" height="12" fill="#00CC88" opacity="0.6"/><rect x="308" y="229" width="8" height="12" fill="#00CC88" opacity="0.6"/><rect x="320" y="229" width="8" height="12" fill="#00CC88" opacity="0.6"/><rect x="332" y="229" width="8" height="12" fill="#00CC88" opacity="0.6"/></g><g><rect x="224" y="254" width="8" height="12" fill="#00CC88" opacity="0.6"/><rect x="236" y="254" width="8" height="12" fill="#00CC88" opacity="0.6"/><rect x="248" y="254" width="8" height="12" fill="#00CC88" opacity="0.6"/><rect x="260" y="254" width="8" height="12" fill="#00CC88" opacity="0.6"/><rect x="272" y="254" width="8" height="12" fill="#00CC88" opacity="0.6"/><rect x="284" y="254" width="8" height="12" fill="#00CC88" opacity="0.6"/><rect x="296" y="254" width="8" height="12" fill="#00CC88" opacity="0.6"/><rect x="308" y="254" width="8" height="12" fill="#00CC88" opacity="0.6"/><rect x="320" y="254" width="8" height="12" fill="#00CC88" opacity="0.6"/><rect x="332" y="254" width="8" height="12" fill="#00CC88" opacity="0.6"/></g><g><rect x="224" y="279" width="8" height="12" fill="#00CC88" opacity="0.6"/><rect x="236" y="279" width="8" height="12" fill="#00CC88" opacity="0.6"/><rect x="248" y="279" width="8" height="12" fill="#00CC88" opacity="0.6"/><rect x="260" y="279" width="8" height="12" fill="#00CC88" opacity="0.6"/><rect x="272" y="279" width="8" height="12" fill="#00CC88" opacity="0.6"/><rect x="284" y="279" width="8" height="12" fill="#00CC88" opacity="0.6"/><rect x="296" y="279" width="8" height="12" fill="#00CC88" opacity="0.6"/><rect x="308" y="279" width="8" height="12" fill="#00CC88" opacity="0.6"/><rect x="320" y="279" width="8" height="12" fill="#00CC88" opacity="0.6"/><rect x="332" y="279" width="8" height="12" fill="#00CC88" opacity="0.6"/></g><g><rect x="224" y="304" width="8" height="12" fill="#00CC88" opacity="0.6"/><rect x="236" y="304" width="8" height="12" fill="#00CC88" opacity="0.6"/><rect x="248" y="304" width="8" height="12" fill="#00CC88" opacity="0.6"/><rect x="260" y="304" width="8" height="12" fill="#00CC88" opacity="0.6"/><rect x="272" y="304" width="8" height="12" fill="#00CC88" opacity="0.6"/><rect x="284" y="304" width="8" height="12" fill="#00CC88" opacity="0.6"/><rect x="296" y="304" width="8" height="12" fill="#00CC88" opacity="0.6"/><rect x="308" y="304" width="8" height="12" fill="#00CC88" opacity="0.6"/><rect x="320" y="304" width="8" height="12" fill="#00CC88" opacity="0.6"/><rect x="332" y="304" width="8" height="12" fill="#00CC88" opacity="0.6"/></g><g><rect x="224" y="329" width="8" height="12" fill="#00CC88" opacity="0.6"/><rect x="236" y="329" width="8" height="12" fill="#00CC88" opacity="0.6"/><rect x="248" y="329" width="8" height="12" fill="#00CC88" opacity="0.6"/><rect x="260" y="329" width="8" height="12" fill="#00CC88" opacity="0.6"/><rect x="272" y="329" width="8" height="12" fill="#00CC88" opacity="0.6"/><rect x="284" y="329" width="8" height="12" fill="#00CC88" opacity="0.6"/><rect x="296" y="329" width="8" height="12" fill="#00CC88" opacity="0.6"/><rect x="308" y="329" width="8" height="12" fill="#00CC88" opacity="0.6"/><rect x="320" y="329" width="8" height="12" fill="#00CC88" opacity="0.6"/><rect x="332" y="329" width="8" height="12" fill="#00CC88" opacity="0.6"/></g><g><rect x="224" y="354" width="8" height="12" fill="#00CC88" opacity="0.6"/><rect x="236" y="354" width="8" height="12" fill="#00CC88" opacity="0.6"/><rect x="248" y="354" width="8" height="12" fill="#00CC88" opacity="0.6"/><rect x="260" y="354" width="8" height="12" fill="#00CC88" opacity="0.6"/><rect x="272" y="354" width="8" height="12" fill="#00CC88" opacity="0.6"/><rect x="284" y="354" width="8" height="12" fill="#00CC88" opacity="0.6"/><rect x="296" y="354" width="8" height="12" fill="#00CC88" opacity="0.6"/><rect x="308" y="354" width="8" height="12" fill="#00CC88" opacity="0.6"/><rect x="320" y="354" width="8" height="12" fill="#00CC88" opacity="0.6"/><rect x="332" y="354" width="8" height="12" fill="#00CC88" opacity="0.6"/></g><g><rect x="224" y="379" width="8" height="12" fill="#00CC88" opacity="0.6"/><rect x="236" y="379" width="8" height="12" fill="#00CC88" opacity="0.6"/><rect x="248" y="379" width="8" height="12" fill="#00CC88" opacity="0.6"/><rect x="260" y="379" width="8" height="12" fill="#00CC88" opacity="0.6"/><rect x="272" y="379" width="8" height="12" fill="#00CC88" opacity="0.6"/><rect x="284" y="379" width="8" height="12" fill="#00CC88" opacity="0.6"/><rect x="296" y="379" width="8" height="12" fill="#00CC88" opacity="0.6"/><rect x="308" y="379" width="8" height="12" fill="#00CC88" opacity="0.6"/><rect x="320" y="379" width="8" height="12" fill="#00CC88" opacity="0.6"/><rect x="332" y="379" width="8" height="12" fill="#00CC88" opacity="0.6"/></g><g><rect x="224" y="404" width="8" height="12" fill="#00CC88" opacity="0.6"/><rect x="236" y="404" width="8" height="12" fill="#00CC88" opacity="0.6"/><rect x="248" y="404" width="8" height="12" fill="#00CC88" opacity="0.6"/><rect x="260" y="404" width="8" height="12" fill="#00CC88" opacity="0.6"/><rect x="272" y="404" width="8" height="12" fill="#00CC88" opacity="0.6"/><rect x="284" y="404" width="8" height="12" fill="#00CC88" opacity="0.6"/><rect x="296" y="404" width="8" height="12" fill="#00CC88" opacity="0.6"/><rect x="308" y="404" width="8" height="12" fill="#00CC88" opacity="0.6"/><rect x="320" y="404" width="8" height="12" fill="#00CC88" opacity="0.6"/><rect x="332" y="404" width="8" height="12" fill="#00CC88" opacity="0.6"/></g><g><rect x="224" y="429" width="8" height="12" fill="#00CC88" opacity="0.6"/><rect x="236" y="429" width="8" height="12" fill="#00CC88" opacity="0.6"/><rect x="248" y="429" width="8" height="12" fill="#00CC88" opacity="0.6"/><rect x="260" y="429" width="8" height="12" fill="#00CC88" opacity="0.6"/><rect x="272" y="429" width="8" height="12" fill="#00CC88" opacity="0.6"/><rect x="284" y="429" width="8" height="12" fill="#00CC88" opacity="0.6"/><rect x="296" y="429" width="8" height="12" fill="#00CC88" opacity="0.6"/><rect x="308" y="429" width="8" height="12" fill="#00CC88" opacity="0.6"/><rect x="320" y="429" width="8" height="12" fill="#00CC88" opacity="0.6"/><rect x="332" y="429" width="8" height="12" fill="#00CC88" opacity="0.6"/></g><g><rect x="224" y="454" width="8" height="12" fill="#00CC88" opacity="0.6"/><rect x="236" y="454" width="8" height="12" fill="#00CC88" opacity="0.6"/><rect x="248" y="454" width="8" height="12" fill="#00CC88" opacity="0.6"/><rect x="260" y="454" width="8" height="12" fill="#00CC88" opacity="0.6"/><rect x="272" y="454" width="8" height="12" fill="#00CC88" opacity="0.6"/><rect x="284" y="454" width="8" height="12" fill="#00CC88" opacity="0.6"/><rect x="296" y="454" width="8" height="12" fill="#00CC88" opacity="0.6"/><rect x="308" y="454" width="8" height="12" fill="#00CC88" opacity="0.6"/><rect x="320" y="454" width="8" height="12" fill="#00CC88" opacity="0.6"/><rect x="332" y="454" width="8" height="12" fill="#00CC88" opacity="0.6"/></g><g><rect x="224" y="479" width="8" height="12" fill="#00CC88" opacity="0.6"/><rect x="236" y="479" width="8" height="12" fill="#00CC88" opacity="0.6"/><rect x="248" y="479" width="8" height="12" fill="#00CC88" opacity="0.6"/><rect x="260" y="479" width="8" height="12" fill="#00CC88" opacity="0.6"/><rect x="272" y="479" width="8" height="12" fill="#00CC88" opacity="0.6"/><rect x="284" y="479" width="8" height="12" fill="#00CC88" opacity="0.6"/><rect x="296" y="479" width="8" height="12" fill="#00CC88" opacity="0.6"/><rect x="308" y="479" width="8" height="12" fill="#00CC88" opacity="0.6"/><rect x="320" y="479" width="8" height="12" fill="#00CC88" opacity="0.6"/><rect x="332" y="479" width="8" height="12" fill="#00CC88" opacity="0.6"/></g><g><rect x="224" y="504" width="8" height="12" fill="#00CC88" opacity="0.6"/><rect x="236" y="504" width="8" height="12" fill="#00CC88" opacity="0.6"/><rect x="248" y="504" width="8" height="12" fill="#00CC88" opacity="0.6"/><rect x="260" y="504" width="8" height="12" fill="#00CC88" opacity="0.6"/><rect x="272" y="504" width="8" height="12" fill="#00CC88" opacity="0.6"/><rect x="284" y="504" width="8" height="12" fill="#00CC88" opacity="0.6"/><rect x="296" y="504" width="8" height="12" fill="#00CC88" opacity="0.6"/><rect x="308" y="504" width="8" height="12" fill="#00CC88" opacity="0.6"/><rect x="320" y="504" width="8" height="12" fill="#00CC88" opacity="0.6"/><rect x="332" y="504" width="8" height="12" fill="#00CC88" opacity="0.6"/></g><g><rect x="224" y="529" width="8" height="12" fill="#00CC88" opacity="0.6"/><rect x="236" y="529" width="8" height="12" fill="#00CC88" opacity="0.6"/><rect x="248" y="529" width="8" height="12" fill="#00CC88" opacity="0.6"/><rect x="260" y="529" width="8" height="12" fill="#00CC88" opacity="0.6"/><rect x="272" y="529" width="8" height="12" fill="#00CC88" opacity="0.6"/><rect x="284" y="529" width="8" height="12" fill="#00CC88" opacity="0.6"/><rect x="296" y="529" width="8" height="12" fill="#00CC88" opacity="0.6"/><rect x="308" y="529" width="8" height="12" fill="#00CC88" opacity="0.6"/><rect x="320" y="529" width="8" height="12" fill="#00CC88" opacity="0.6"/><rect x="332" y="529" width="8" height="12" fill="#00CC88" opacity="0.6"/></g><g><rect x="224" y="554" width="8" height="12" fill="#00CC88" opacity="0.6"/><rect x="236" y="554" width="8" height="12" fill="#00CC88" opacity="0.6"/><rect x="248" y="554" width="8" height="12" fill="#00CC88" opacity="0.6"/><rect x="260" y="554" width="8" height="12" fill="#00CC88" opacity="0.6"/><rect x="272" y="554" width="8" height="12" fill="#00CC88" opacity="0.6"/><rect x="284" y="554" width="8" height="12" fill="#00CC88" opacity="0.6"/><rect x="296" y="554" width="8" height="12" fill="#00CC88" opacity="0.6"/><rect x="308" y="554" width="8" height="12" fill="#00CC88" opacity="0.6"/><rect x="320" y="554" width="8" height="12" fill="#00CC88" opacity="0.6"/><rect x="332" y="554" width="8" height="12" fill="#00CC88" opacity="0.6"/></g><rect x="220" y="195" width="130" height="5" fill="#8B5CF6"/><line x1="285" y1="200" x2="285" y2="180" stroke="#94A3B8" stroke-width="4"/><circle cx="285" cy="180" r="5" fill="#FF6B6B"/><circle cx="285" cy="200" r="5" fill="#00CC88" stroke="#fff" stroke-width="2"/></g><g><rect x="400" y="80" width="140" height="500" fill="#0066FF" stroke="#0066FF" stroke-width="3" opacity="0.9"/><g><rect x="404" y="84" width="8" height="12" fill="#00CC88" opacity="0.6"/><rect x="416" y="84" width="8" height="12" fill="#00CC88" opacity="0.6"/><rect x="428" y="84" width="8" height="12" fill="#00CC88" opacity="0.6"/><rect x="440" y="84" width="8" height="12" fill="#00CC88" opacity="0.6"/><rect x="452" y="84" width="8" height="12" fill="#00CC88" opacity="0.6"/><rect x="464" y="84" width="8" height="12" fill="#00CC88" opacity="0.6"/><rect x="476" y="84" width="8" height="12" fill="#00CC88" opacity="0.6"/><rect x="488" y="84" width="8" height="12" fill="#00CC88" opacity="0.6"/><rect x="500" y="84" width="8" height="12" fill="#00CC88" opacity="0.6"/><rect x="512" y="84" width="8" height="12" fill="#00CC88" opacity="0.6"/><rect x="524" y="84" width="8" height="12" fill="#00CC88" opacity="0.6"/></g><g><rect x="404" y="109" width="8" height="12" fill="#00CC88" opacity="0.6"/><rect x="416" y="109" width="8" height="12" fill="#00CC88" opacity="0.6"/><rect x="428" y="109" width="8" height="12" fill="#00CC88" opacity="0.6"/><rect x="440" y="109" width="8" height="12" fill="#00CC88" opacity="0.6"/><rect x="452" y="109" width="8" height="12" fill="#00CC88" opacity="0.6"/><rect x="464" y="109" width="8" height="12" fill="#00CC88" opacity="0.6"/><rect x="476" y="109" width="8" height="12" fill="#00CC88" opacity="0.6"/><rect x="488" y="109" width="8" height="12" fill="#00CC88" opacity="0.6"/><rect x="500" y="109" width="8" height="12" fill="#00CC88" opacity="0.6"/><rect x="512" y="109" width="8" height="12" fill="#00CC88" opacity="0.6"/><rect x="524" y="109" width="8" height="12" fill="#00CC88" opacity="0.6"/></g><g><rect x="404" y="134" width="8" height="12" fill="#00CC88" opacity="0.6"/><rect x="416" y="134" width="8" height="12" fill="#00CC88" opacity="0.6"/><rect x="428" y="134" width="8" height="12" fill="#00CC88" opacity="0.6"/><rect x="440" y="134" width="8" height="12" fill="#00CC88" opacity="0.6"/><rect x="452" y="134" width="8" height="12" fill="#00CC88" opacity="0.6"/><rect x="464" y="134" width="8" height="12" fill="#00CC88" opacity="0.6"/><rect x="476" y="134" width="8" height="12" fill="#00CC88" opacity="0.6"/><rect x="488" y="134" width="8" height="12" fill="#00CC88" opacity="0.6"/><rect x="500" y="134" width="8" height="12" fill="#00CC88" opacity="0.6"/><rect x="512" y="134" width="8" height="12" fill="#00CC88" opacity="0.6"/><rect x="524" y="134" width="8" height="12" fill="#00CC88" opacity="0.6"/></g><g><rect x="404" y="159" width="8" height="12" fill="#00CC88" opacity="0.6"/><rect x="416" y="159" width="8" height="12" fill="#00CC88" opacity="0.6"/><rect x="428" y="159" width="8" height="12" fill="#00CC88" opacity="0.6"/><rect x="440" y="159" width="8" height="12" fill="#00CC88" opacity="0.6"/><rect x="452" y="159" width="8" height="12" fill="#00CC88" opacity="0.6"/><rect x="464" y="159" width="8" height="12" fill="#00CC88" opacity="0.6"/><rect x="476" y="159" width="8" height="12" fill="#00CC88" opacity="0.6"/><rect x="488" y="159" width="8" height="12" fill="#00CC88" opacity="0.6"/><rect x="500" y="159" width="8" height="12" fill="#00CC88" opacity="0.6"/><rect x="512" y="159" width="8" height="12" fill="#00CC88" opacity="0.6"/><rect x="524" y="159" width="8" height="12" fill="#00CC88" opacity="0.6"/></g><g><rect x="404" y="184" width="8" height="12" fill="#00CC88" opacity="0.6"/><rect x="416" y="184" width="8" height="12" fill="#00CC88" opacity="0.6"/><rect x="428" y="184" width="8" height="12" fill="#00CC88" opacity="0.6"/><rect x="440" y="184" width="8" height="12" fill="#00CC88" opacity="0.6"/><rect x="452" y="184" width="8" height="12" fill="#00CC88" opacity="0.6"/><rect x="464" y="184" width="8" height="12" fill="#00CC88" opacity="0.6"/><rect x="476" y="184" width="8" height="12" fill="#00CC88" opacity="0.6"/><rect x="488" y="184" width="8" height="12" fill="#00CC88" opacity="0.6"/><rect x="500" y="184" width="8" height="12" fill="#00CC88" opacity="0.6"/><rect x="512" y="184" width="8" height="12" fill="#00CC88" opacity="0.6"/><rect x="524" y="184" width="8" height="12" fill="#00CC88" opacity="0.6"/></g><g><rect x="404" y="209" width="8" height="12" fill="#00CC88" opacity="0.6"/><rect x="416" y="209" width="8" height="12" fill="#00CC88" opacity="0.6"/><rect x="428" y="209" width="8" height="12" fill="#00CC88" opacity="0.6"/><rect x="440" y="209" width="8" height="12" fill="#00CC88" opacity="0.6"/><rect x="452" y="209" width="8" height="12" fill="#00CC88" opacity="0.6"/><rect x="464" y="209" width="8" height="12" fill="#00CC88" opacity="0.6"/><rect x="476" y="209" width="8" height="12" fill="#00CC88" opacity="0.6"/><rect x="488" y="209" width="8" height="12" fill="#00CC88" opacity="0.6"/><rect x="500" y="209" width="8" height="12" fill="#00CC88" opacity="0.6"/><rect x="512" y="209" width="8" height="12" fill="#00CC88" opacity="0.6"/><rect x="524" y="209" width="8" height="12" fill="#00CC88" opacity="0.6"/></g><g><rect x="404" y="234" width="8" height="12" fill="#00CC88" opacity="0.6"/><rect x="416" y="234" width="8" height="12" fill="#00CC88" opacity="0.6"/><rect x="428" y="234" width="8" height="12" fill="#00CC88" opacity="0.6"/><rect x="440" y="234" width="8" height="12" fill="#00CC88" opacity="0.6"/><rect x="452" y="234" width="8" height="12" fill="#00CC88" opacity="0.6"/><rect x="464" y="234" width="8" height="12" fill="#00CC88" opacity="0.6"/><rect x="476" y="234" width="8" height="12" fill="#00CC88" opacity="0.6"/><rect x="488" y="234" width="8" height="12" fill="#00CC88" opacity="0.6"/><rect x="500" y="234" width="8" height="12" fill="#00CC88" opacity="0.6"/><rect x="512" y="234" width="8" height="12" fill="#00CC88" opacity="0.6"/><rect x="524" y="234" width="8" height="12" fill="#00CC88" opacity="0.6"/></g><g><rect x="404" y="259" width="8" height="12" fill="#00CC88" opacity="0.6"/><rect x="416" y="259" width="8" height="12" fill="#00CC88" opacity="0.6"/><rect x="428" y="259" width="8" height="12" fill="#00CC88" opacity="0.6"/><rect x="440" y="259" width="8" height="12" fill="#00CC88" opacity="0.6"/><rect x="452" y="259" width="8" height="12" fill="#00CC88" opacity="0.6"/><rect x="464" y="259" width="8" height="12" fill="#00CC88" opacity="0.6"/><rect x="476" y="259" width="8" height="12" fill="#00CC88" opacity="0.6"/><rect x="488" y="259" width="8" height="12" fill="#00CC88" opacity="0.6"/><rect x="500" y="259" width="8" height="12" fill="#00CC88" opacity="0.6"/><rect x="512" y="259" width="8" height="12" fill="#00CC88" opacity="0.6"/><rect x="524" y="259" width="8" height="12" fill="#00CC88" opacity="0.6"/></g><g><rect x="404" y="284" width="8" height="12" fill="#00CC88" opacity="0.6"/><rect x="416" y="284" width="8" height="12" fill="#00CC88" opacity="0.6"/><rect x="428" y="284" width="8" height="12" fill="#00CC88" opacity="0.6"/><rect x="440" y="284" width="8" height="12" fill="#00CC88" opacity="0.6"/><rect x="452" y="284" width="8" height="12" fill="#00CC88" opacity="0.6"/><rect x="464" y="284" width="8" height="12" fill="#00CC88" opacity="0.6"/><rect x="476" y="284" width="8" height="12" fill="#00CC88" opacity="0.6"/><rect x="488" y="284" width="8" height="12" fill="#00CC88" opacity="0.6"/><rect x="500" y="284" width="8" height="12" fill="#00CC88" opacity="0.6"/><rect x="512" y="284" width="8" height="12" fill="#00CC88" opacity="0.6"/><rect x="524" y="284" width="8" height="12" fill="#00CC88" opacity="0.6"/></g><g><rect x="404" y="309" width="8" height="12" fill="#00CC88" opacity="0.6"/><rect x="416" y="309" width="8" height="12" fill="#00CC88" opacity="0.6"/><rect x="428" y="309" width="8" height="12" fill="#00CC88" opacity="0.6"/><rect x="440" y="309" width="8" height="12" fill="#00CC88" opacity="0.6"/><rect x="452" y="309" width="8" height="12" fill="#00CC88" opacity="0.6"/><rect x="464" y="309" width="8" height="12" fill="#00CC88" opacity="0.6"/><rect x="476" y="309" width="8" height="12" fill="#00CC88" opacity="0.6"/><rect x="488" y="309" width="8" height="12" fill="#00CC88" opacity="0.6"/><rect x="500" y="309" width="8" height="12" fill="#00CC88" opacity="0.6"/><rect x="512" y="309" width="8" height="12" fill="#00CC88" opacity="0.6"/><rect x="524" y="309" width="8" height="12" fill="#00CC88" opacity="0.6"/></g><g><rect x="404" y="334" width="8" height="12" fill="#00CC88" opacity="0.6"/><rect x="416" y="334" width="8" height="12" fill="#00CC88" opacity="0.6"/><rect x="428" y="334" width="8" height="12" fill="#00CC88" opacity="0.6"/><rect x="440" y="334" width="8" height="12" fill="#00CC88" opacity="0.6"/><rect x="452" y="334" width="8" height="12" fill="#00CC88" opacity="0.6"/><rect x="464" y="334" width="8" height="12" fill="#00CC88" opacity="0.6"/><rect x="476" y="334" width="8" height="12" fill="#00CC88" opacity="0.6"/><rect x="488" y="334" width="8" height="12" fill="#00CC88" opacity="0.6"/><rect x="500" y="334" width="8" height="12" fill="#00CC88" opacity="0.6"/><rect x="512" y="334" width="8" height="12" fill="#00CC88" opacity="0.6"/><rect x="524" y="334" width="8" height="12" fill="#00CC88" opacity="0.6"/></g><g><rect x="404" y="359" width="8" height="12" fill="#00CC88" opacity="0.6"/><rect x="416" y="359" width="8" height="12" fill="#00CC88" opacity="0.6"/><rect x="428" y="359" width="8" height="12" fill="#00CC88" opacity="0.6"/><rect x="440" y="359" width="8" height="12" fill="#00CC88" opacity="0.6"/><rect x="452" y="359" width="8" height="12" fill="#00CC88" opacity="0.6"/><rect x="464" y="359" width="8" height="12" fill="#00CC88" opacity="0.6"/><rect x="476" y="359" width="8" height="12" fill="#00CC88" opacity="0.6"/><rect x="488" y="359" width="8" height="12" fill="#00CC88" opacity="0.6"/><rect x="500" y="359" width="8" height="12" fill="#00CC88" opacity="0.6"/><rect x="512" y="359" width="8" height="12" fill="#00CC88" opacity="0.6"/><rect x="524" y="359" width="8" height="12" fill="#00CC88" opacity="0.6"/></g><g><rect x="404" y="384" width="8" height="12" fill="#00CC88" opacity="0.6"/><rect x="416" y="384" width="8" height="12" fill="#00CC88" opacity="0.6"/><rect x="428" y="384" width="8" height="12" fill="#00CC88" opacity="0.6"/><rect x="440" y="384" width="8" height="12" fill="#00CC88" opacity="0.6"/><rect x="452" y="384" width="8" height="12" fill="#00CC88" opacity="0.6"/><rect x="464" y="384" width="8" height="12" fill="#00CC88" opacity="0.6"/><rect x="476" y="384" width="8" height="12" fill="#00CC88" opacity="0.6"/><rect x="488" y="384" width="8" height="12" fill="#00CC88" opacity="0.6"/><rect x="500" y="384" width="8" height="12" fill="#00CC88" opacity="0.6"/><rect x="512" y="384" width="8" height="12" fill="#00CC88" opacity="0.6"/><rect x="524" y="384" width="8" height="12" fill="#00CC88" opacity="0.6"/></g><g><rect x="404" y="409" width="8" height="12" fill="#00CC88" opacity="0.6"/><rect x="416" y="409" width="8" height="12" fill="#00CC88" opacity="0.6"/><rect x="428" y="409" width="8" height="12" fill="#00CC88" opacity="0.6"/><rect x="440" y="409" width="8" height="12" fill="#00CC88" opacity="0.6"/><rect x="452" y="409" width="8" height="12" fill="#00CC88" opacity="0.6"/><rect x="464" y="409" width="8" height="12" fill="#00CC88" opacity="0.6"/><rect x="476" y="409" width="8" height="12" fill="#00CC88" opacity="0.6"/><rect x="488" y="409" width="8" height="12" fill="#00CC88" opacity="0.6"/><rect x="500" y="409" width="8" height="12" fill="#00CC88" opacity="0.6"/><rect x="512" y="409" width="8" height="12" fill="#00CC88" opacity="0.6"/><rect x="524" y="409" width="8" height="12" fill="#00CC88" opacity="0.6"/></g><g><rect x="404" y="434" width="8" height="12" fill="#00CC88" opacity="0.6"/><rect x="416" y="434" width="8" height="12" fill="#00CC88" opacity="0.6"/><rect x="428" y="434" width="8" height="12" fill="#00CC88" opacity="0.6"/><rect x="440" y="434" width="8" height="12" fill="#00CC88" opacity="0.6"/><rect x="452" y="434" width="8" height="12" fill="#00CC88" opacity="0.6"/><rect x="464" y="434" width="8" height="12" fill="#00CC88" opacity="0.6"/><rect x="476" y="434" width="8" height="12" fill="#00CC88" opacity="0.6"/><rect x="488" y="434" width="8" height="12" fill="#00CC88" opacity="0.6"/><rect x="500" y="434" width="8" height="12" fill="#00CC88" opacity="0.6"/><rect x="512" y="434" width="8" height="12" fill="#00CC88" opacity="0.6"/><rect x="524" y="434" width="8" height="12" fill="#00CC88" opacity="0.6"/></g><g><rect x="404" y="459" width="8" height="12" fill="#00CC88" opacity="0.6"/><rect x="416" y="459" width="8" height="12" fill="#00CC88" opacity="0.6"/><rect x="428" y="459" width="8" height="12" fill="#00CC88" opacity="0.6"/><rect x="440" y="459" width="8" height="12" fill="#00CC88" opacity="0.6"/><rect x="452" y="459" width="8" height="12" fill="#00CC88" opacity="0.6"/><rect x="464" y="459" width="8" height="12" fill="#00CC88" opacity="0.6"/><rect x="476" y="459" width="8" height="12" fill="#00CC88" opacity="0.6"/><rect x="488" y="459" width="8" height="12" fill="#00CC88" opacity="0.6"/><rect x="500" y="459" width="8" height="12" fill="#00CC88" opacity="0.6"/><rect x="512" y="459" width="8" height="12" fill="#00CC88" opacity="0.6"/><rect x="524" y="459" width="8" height="12" fill="#00CC88" opacity="0.6"/></g><g><rect x="404" y="484" width="8" height="12" fill="#00CC88" opacity="0.6"/><rect x="416" y="484" width="8" height="12" fill="#00CC88" opacity="0.6"/><rect x="428" y="484" width="8" height="12" fill="#00CC88" opacity="0.6"/><rect x="440" y="484" width="8" height="12" fill="#00CC88" opacity="0.6"/><rect x="452" y="484" width="8" height="12" fill="#00CC88" opacity="0.6"/><rect x="464" y="484" width="8" height="12" fill="#00CC88" opacity="0.6"/><rect x="476" y="484" width="8" height="12" fill="#00CC88" opacity="0.6"/><rect x="488" y="484" width="8" height="12" fill="#00CC88" opacity="0.6"/><rect x="500" y="484" width="8" height="12" fill="#00CC88" opacity="0.6"/><rect x="512" y="484" width="8" height="12" fill="#00CC88" opacity="0.6"/><rect x="524" y="484" width="8" height="12" fill="#00CC88" opacity="0.6"/></g><g><rect x="404" y="509" width="8" height="12" fill="#00CC88" opacity="0.6"/><rect x="416" y="509" width="8" height="12" fill="#00CC88" opacity="0.6"/><rect x="428" y="509" width="8" height="12" fill="#00CC88" opacity="0.6"/><rect x="440" y="509" width="8" height="12" fill="#00CC88" opacity="0.6"/><rect x="452" y="509" width="8" height="12" fill="#00CC88" opacity="0.6"/><rect x="464" y="509" width="8" height="12" fill="#00CC88" opacity="0.6"/><rect x="476" y="509" width="8" height="12" fill="#00CC88" opacity="0.6"/><rect x="488" y="509" width="8" height="12" fill="#00CC88" opacity="0.6"/><rect x="500" y="509" width="8" height="12" fill="#00CC88" opacity="0.6"/><rect x="512" y="509" width="8" height="12" fill="#00CC88" opacity="0.6"/><rect x="524" y="509" width="8" height="12" fill="#00CC88" opacity="0.6"/></g><g><rect x="404" y="534" width="8" height="12" fill="#00CC88" opacity="0.6"/><rect x="416" y="534" width="8" height="12" fill="#00CC88" opacity="0.6"/><rect x="428" y="534" width="8" height="12" fill="#00CC88" opacity="0.6"/><rect x="440" y="534" width="8" height="12" fill="#00CC88" opacity="0.6"/><rect x="452" y="534" width="8" height="12" fill="#00CC88" opacity="0.6"/><rect x="464" y="534" width="8" height="12" fill="#00CC88" opacity="0.6"/><rect x="476" y="534" width="8" height="12" fill="#00CC88" opacity="0.6"/><rect x="488" y="534" width="8" height="12" fill="#00CC88" opacity="0.6"/><rect x="500" y="534" width="8" height="12" fill="#00CC88" opacity="0.6"/><rect x="512" y="534" width="8" height="12" fill="#00CC88" opacity="0.6"/><rect x="524" y="534" width="8" height="12" fill="#00CC88" opacity="0.6"/></g><g><rect x="404" y="559" width="8" height="12" fill="#00CC88" opacity="0.6"/><rect x="416" y="559" width="8" height="12" fill="#00CC88" opacity="0.6"/><rect x="428" y="559" width="8" height="12" fill="#00CC88" opacity="0.6"/><rect x="440" y="559" width="8" height="12" fill="#00CC88" opacity="0.6"/><rect x="452" y="559" width="8" height="12" fill="#00CC88" opacity="0.6"/><rect x="464" y="559" width="8" height="12" fill="#00CC88" opacity="0.6"/><rect x="476" y="559" width="8" height="12" fill="#00CC88" opacity="0.6"/><rect x="488" y="559" width="8" height="12" fill="#00CC88" opacity="0.6"/><rect x="500" y="559" width="8" height="12" fill="#00CC88" opacity="0.6"/><rect x="512" y="559" width="8" height="12" fill="#00CC88" opacity="0.6"/><rect x="524" y="559" width="8" height="12" fill="#00CC88" opacity="0.6"/></g><rect x="400" y="75" width="140" height="5" fill="#8B5CF6"/><line x1="470" y1="80" x2="470" y2="60" stroke="#94A3B8" stroke-width="4"/><circle cx="470" cy="60" r="5" fill="#FF6B6B"/><circle cx="470" cy="80" r="5" fill="#00CC88" stroke="#fff" stroke-width="2"/></g><polyline points="110,300 285,200 470,80" fill="none" stroke="#00CC88" stroke-width="4" opacity="0.8"/><rect x="0" y="580" width="600" height="20" fill="#1e293b"/><line x1="0" y1="580" x2="600" y2="580" stroke="#64748B" stroke-width="4"/><g opacity="0.9"><path d="M 220 180 Q 220 100, 290 70 Q 360 40, 410 110 Q 460 180, 390 260 Q 340 320, 280 370 L 280 440" fill="none" stroke="#00CC88" stroke-width="45" stroke-linecap="round" stroke-linejoin="round"/><circle cx="280" cy="500" r="25" fill="#00CC88"/></g></svg>