<svg id="city-data-logo" width="400" height="400" viewBox="0 0 400 400" fill="none" xmlns="http://www.w3.org/2000/svg" class="w-full max-w-md"><rect x="50" y="50" width="300" height="300" rx="60" fill="#0066FF"/><rect x="160" y="120" width="80" height="180" rx="6" fill="#FFFFFF"/><rect x="172" y="135" width="14" height="14" rx="2" fill="#0066FF"/><rect x="192" y="135" width="14" height="14" rx="2" fill="#0066FF"/><rect x="212" y="135" width="14" height="14" rx="2" fill="#0066FF"/><rect x="172" y="160" width="14" height="14" rx="2" fill="#0066FF"/><rect x="192" y="160" width="14" height="14" rx="2" fill="#0066FF"/><rect x="212" y="160" width="14" height="14" rx="2" fill="#0066FF"/><rect x="172" y="185" width="14" height="14" rx="2" fill="#0066FF"/><rect x="192" y="185" width="14" height="14" rx="2" fill="#0066FF"/><rect x="212" y="185" width="14" height="14" rx="2" fill="#0066FF"/><rect x="172" y="210" width="14" height="14" rx="2" fill="#0066FF"/><rect x="192" y="210" width="14" height="14" rx="2" fill="#0066FF"/><rect x="212" y="210" width="14" height="14" rx="2" fill="#0066FF"/><rect x="172" y="235" width="14" height="14" rx="2" fill="#0066FF"/><rect x="192" y="235" width="14" height="14" rx="2" fill="#0066FF"/><rect x="212" y="235" width="14" height="14" rx="2" fill="#0066FF"/><rect x="172" y="260" width="14" height="14" rx="2" fill="#0066FF"/><rect x="192" y="260" width="14" height="14" rx="2" fill="#0066FF"/><rect x="212" y="260" width="14" height="14" rx="2" fill="#0066FF"/><rect x="90" y="200" width="60" height="100" rx="6" fill="#00CC88"/><rect x="100" y="215" width="12" height="12" rx="2" fill="#FFFFFF"/><rect x="118" y="215" width="12" height="12" rx="2" fill="#FFFFFF"/><rect x="136" y="215" width="12" height="12" rx="2" fill="#FFFFFF"/><rect x="100" y="235" width="12" height="12" rx="2" fill="#FFFFFF"/><rect x="118" y="235" width="12" height="12" rx="2" fill="#FFFFFF"/><rect x="136" y="235" width="12" height="12" rx="2" fill="#FFFFFF"/><rect x="100" y="255" width="12" height="12" rx="2" fill="#FFFFFF"/><rect x="118" y="255" width="12" height="12" rx="2" fill="#FFFFFF"/><rect x="136" y="255" width="12" height="12" rx="2" fill="#FFFFFF"/><rect x="100" y="275" width="12" height="12" rx="2" fill="#FFFFFF"/><rect x="118" y="275" width="12" height="12" rx="2" fill="#FFFFFF"/><rect x="136" y="275" width="12" height="12" rx="2" fill="#FFFFFF"/><rect x="250" y="170" width="60" height="130" rx="6" fill="#FF6B6B"/><rect x="260" y="185" width="12" height="12" rx="2" fill="#FFFFFF"/><rect x="278" y="185" width="12" height="12" rx="2" fill="#FFFFFF"/><rect x="296" y="185" width="12" height="12" rx="2" fill="#FFFFFF"/><rect x="260" y="205" width="12" height="12" rx="2" fill="#FFFFFF"/><rect x="278" y="205" width="12" height="12" rx="2" fill="#FFFFFF"/><rect x="296" y="205" width="12" height="12" rx="2" fill="#FFFFFF"/><rect x="260" y="225" width="12" height="12" rx="2" fill="#FFFFFF"/><rect x="278" y="225" width="12" height="12" rx="2" fill="#FFFFFF"/><rect x="296" y="225" width="12" height="12" rx="2" fill="#FFFFFF"/><rect x="260" y="245" width="12" height="12" rx="2" fill="#FFFFFF"/><rect x="278" y="245" width="12" height="12" rx="2" fill="#FFFFFF"/><rect x="296" y="245" width="12" height="12" rx="2" fill="#FFFFFF"/><rect x="260" y="265" width="12" height="12" rx="2" fill="#FFFFFF"/><rect x="278" y="265" width="12" height="12" rx="2" fill="#FFFFFF"/><rect x="296" y="265" width="12" height="12" rx="2" fill="#FFFFFF"/></svg>